<svg xmlns="http://www.w3.org/2000/svg" width="1440" height="900"><path d="M665,437L760,353L670,334Z" fill="#121212" stroke="#121212" stroke-width="1.51"/><path d="M665,437L782,442L760,353Z" fill="#0b0b0b" stroke="#0b0b0b" stroke-width="1.51"/><path d="M665,437L675,549L782,442Z" fill="#080808" stroke="#080808" stroke-width="1.51"/><path d="M670,334L552,318L665,437Z" fill="#191919" stroke="#191919" stroke-width="1.51"/><path d="M665,437L543,443L675,549Z" fill="#121212" stroke="#121212" stroke-width="1.51"/><path d="M552,318L543,443L665,437Z" fill="#181818" stroke="#181818" stroke-width="1.51"/><path d="M760,353L784,233L670,334Z" fill="#1a1a1a" stroke="#1a1a1a" stroke-width="1.51"/><path d="M670,334L678,214L552,318Z" fill="#222222" stroke="#222222" stroke-width="1.51"/><path d="M902,351L784,233L760,353Z" fill="#202020" stroke="#202020" stroke-width="1.51"/><path d="M784,233L678,214L670,334Z" fill="#1f1f1f" stroke="#1f1f1f" stroke-width="1.51"/><path d="M675,549L777,571L782,442Z" fill="#121212" stroke="#121212" stroke-width="1.51"/><path d="M782,442L902,351L760,353Z" fill="#171717" stroke="#171717" stroke-width="1.51"/><path d="M899,470L902,351L782,442Z" fill="#161616" stroke="#161616" stroke-width="1.51"/><path d="M777,571L899,470L782,442Z" fill="#151515" stroke="#151515" stroke-width="1.51"/><path d="M552,318L419,351L543,443Z" fill="#222222" stroke="#222222" stroke-width="1.51"/><path d="M678,214L544,223L552,318Z" fill="#2a2a2a" stroke="#2a2a2a" stroke-width="1.51"/><path d="M543,443L556,572L675,549Z" fill="#1a1a1a" stroke="#1a1a1a" stroke-width="1.51"/><path d="M675,549L788,665L777,571Z" fill="#1b1b1b" stroke="#1b1b1b" stroke-width="1.51"/><path d="M902,351L874,198L784,233Z" fill="#292929" stroke="#292929" stroke-width="1.51"/><path d="M784,233L773,129L678,214Z" fill="#242424" stroke="#242424" stroke-width="1.51"/><path d="M678,214L648,119L544,223Z" fill="#2a2a2a" stroke="#2a2a2a" stroke-width="1.51"/><path d="M777,571L885,569L899,470Z" fill="#1c1c1c" stroke="#1c1c1c" stroke-width="1.51"/><path d="M874,198L773,129L784,233Z" fill="#292929" stroke="#292929" stroke-width="1.51"/><path d="M773,129L648,119L678,214Z" fill="#232323" stroke="#232323" stroke-width="1.51"/><path d="M902,351L986,344L874,198Z" fill="#292929" stroke="#292929" stroke-width="1.51"/><path d="M984,454L986,344L902,351Z" fill="#222222" stroke="#222222" stroke-width="1.51"/><path d="M984,454L902,351L899,470Z" fill="#1b1b1b" stroke="#1b1b1b" stroke-width="1.51"/><path d="M985,576L984,454L899,470Z" fill="#202020" stroke="#202020" stroke-width="1.51"/><path d="M435,226L419,351L552,318Z" fill="#2e2e2e" stroke="#2e2e2e" stroke-width="1.51"/><path d="M543,443L440,564L556,572Z" fill="#202020" stroke="#202020" stroke-width="1.51"/><path d="M777,571L788,665L885,569Z" fill="#212121" stroke="#212121" stroke-width="1.51"/><path d="M643,703L788,665L675,549Z" fill="#202020" stroke="#202020" stroke-width="1.51"/><path d="M419,351L412,451L543,443Z" fill="#202020" stroke="#202020" stroke-width="1.51"/><path d="M544,223L435,226L552,318Z" fill="#303030" stroke="#303030" stroke-width="1.51"/><path d="M449,98L435,226L544,223Z" fill="#363636" stroke="#363636" stroke-width="1.51"/><path d="M556,572L643,703L675,549Z" fill="#222222" stroke="#222222" stroke-width="1.51"/><path d="M412,451L440,564L543,443Z" fill="#1f1f1f" stroke="#1f1f1f" stroke-width="1.51"/><path d="M561,684L643,703L556,572Z" fill="#2b2b2b" stroke="#2b2b2b" stroke-width="1.51"/><path d="M430,655L561,684L556,572Z" fill="#2f2f2f" stroke="#2f2f2f" stroke-width="1.51"/><path d="M885,569L985,576L899,470Z" fill="#222222" stroke="#222222" stroke-width="1.51"/><path d="M1097,330L1032,194L986,344Z" fill="#353535" stroke="#353535" stroke-width="1.51"/><path d="M885,705L985,576L885,569Z" fill="#2b2b2b" stroke="#2b2b2b" stroke-width="1.51"/><path d="M773,129L678,7L648,119Z" fill="#212121" stroke="#212121" stroke-width="1.51"/><path d="M874,198L895,95L773,129Z" fill="#2b2b2b" stroke="#2b2b2b" stroke-width="1.51"/><path d="M996,113L895,95L874,198Z" fill="#313131" stroke="#313131" stroke-width="1.51"/><path d="M648,119L527,83L544,223Z" fill="#2d2d2d" stroke="#2d2d2d" stroke-width="1.51"/><path d="M539,5L527,83L648,119Z" fill="#2b2b2b" stroke="#2b2b2b" stroke-width="1.51"/><path d="M788,665L885,705L885,569Z" fill="#2a2a2a" stroke="#2a2a2a" stroke-width="1.51"/><path d="M796,812L885,705L788,665Z" fill="#2a2a2a" stroke="#2a2a2a" stroke-width="1.51"/><path d="M412,451L304,563L440,564Z" fill="#2b2b2b" stroke="#2b2b2b" stroke-width="1.51"/><path d="M419,351L342,442L412,451Z" fill="#252525" stroke="#252525" stroke-width="1.51"/><path d="M298,347L342,442L419,351Z" fill="#2c2c2c" stroke="#2c2c2c" stroke-width="1.51"/><path d="M986,344L1032,194L874,198Z" fill="#343434" stroke="#343434" stroke-width="1.51"/><path d="M1097,330L986,344L1112,442Z" fill="#2c2c2c" stroke="#2c2c2c" stroke-width="1.51"/><path d="M801,11L678,7L773,129Z" fill="#222222" stroke="#222222" stroke-width="1.51"/><path d="M643,703L679,770L788,665Z" fill="#242424" stroke="#242424" stroke-width="1.51"/><path d="M526,813L679,770L643,703Z" fill="#292929" stroke="#292929" stroke-width="1.51"/><path d="M440,564L430,655L556,572Z" fill="#2d2d2d" stroke="#2d2d2d" stroke-width="1.51"/><path d="M561,684L526,813L643,703Z" fill="#2d2d2d" stroke="#2d2d2d" stroke-width="1.51"/><path d="M339,665L430,655L440,564Z" fill="#373737" stroke="#373737" stroke-width="1.51"/><path d="M435,226L298,347L419,351Z" fill="#343434" stroke="#343434" stroke-width="1.51"/><path d="M527,83L449,98L544,223Z" fill="#323232" stroke="#323232" stroke-width="1.51"/><path d="M455,9L449,98L527,83Z" fill="#323232" stroke="#323232" stroke-width="1.51"/><path d="M895,95L801,11L773,129Z" fill="#272727" stroke="#272727" stroke-width="1.51"/><path d="M869,-8L801,11L895,95Z" fill="#292929" stroke="#292929" stroke-width="1.51"/><path d="M1112,442L986,344L984,454Z" fill="#232323" stroke="#232323" stroke-width="1.51"/><path d="M1032,194L996,113L874,198Z" fill="#363636" stroke="#363636" stroke-width="1.51"/><path d="M1119,120L996,113L1032,194Z" fill="#3c3c3c" stroke="#3c3c3c" stroke-width="1.51"/><path d="M290,205L298,347L435,226Z" fill="#3c3c3c" stroke="#3c3c3c" stroke-width="1.51"/><path d="M342,442L304,563L412,451Z" fill="#282828" stroke="#282828" stroke-width="1.51"/><path d="M985,576L1112,442L984,454Z" fill="#242424" stroke="#242424" stroke-width="1.51"/><path d="M1148,566L1112,442L985,576Z" fill="#2d2d2d" stroke="#2d2d2d" stroke-width="1.51"/><path d="M885,705L1007,667L985,576Z" fill="#333333" stroke="#333333" stroke-width="1.51"/><path d="M1012,791L1007,667L885,705Z" fill="#363636" stroke="#363636" stroke-width="1.51"/><path d="M678,7L539,5L648,119Z" fill="#272727" stroke="#272727" stroke-width="1.51"/><path d="M770,-136L640,-126L678,7Z" fill="#202020" stroke="#202020" stroke-width="1.51"/><path d="M678,7L566,-117L539,5Z" fill="#282828" stroke="#282828" stroke-width="1.51"/><path d="M1006,-25L869,-8L895,95Z" fill="#2e2e2e" stroke="#2e2e2e" stroke-width="1.51"/><path d="M679,770L796,812L788,665Z" fill="#242424" stroke="#242424" stroke-width="1.51"/><path d="M197,466L304,563L342,442Z" fill="#272727" stroke="#272727" stroke-width="1.51"/><path d="M1097,330L1132,237L1032,194Z" fill="#3d3d3d" stroke="#3d3d3d" stroke-width="1.51"/><path d="M996,113L1006,-25L895,95Z" fill="#333333" stroke="#333333" stroke-width="1.51"/><path d="M1240,307L1132,237L1097,330Z" fill="#363636" stroke="#363636" stroke-width="1.51"/><path d="M796,812L904,794L885,705Z" fill="#2c2c2c" stroke="#2c2c2c" stroke-width="1.51"/><path d="M539,5L455,9L527,83Z" fill="#2f2f2f" stroke="#2f2f2f" stroke-width="1.51"/><path d="M289,118L290,205L435,226Z" fill="#3f3f3f" stroke="#3f3f3f" stroke-width="1.51"/><path d="M289,118L435,226L449,98Z" fill="#3c3c3c" stroke="#3c3c3c" stroke-width="1.51"/><path d="M298,347L197,466L342,442Z" fill="#262626" stroke="#262626" stroke-width="1.51"/><path d="M304,563L339,665L440,564Z" fill="#363636" stroke="#363636" stroke-width="1.51"/><path d="M450,777L526,813L561,684Z" fill="#323232" stroke="#323232" stroke-width="1.51"/><path d="M679,770L758,890L796,812Z" fill="#212121" stroke="#212121" stroke-width="1.51"/><path d="M450,777L561,684L430,655Z" fill="#363636" stroke="#363636" stroke-width="1.51"/><path d="M339,665L450,777L430,655Z" fill="#3c3c3c" stroke="#3c3c3c" stroke-width="1.51"/><path d="M1007,667L1148,566L985,576Z" fill="#343434" stroke="#343434" stroke-width="1.51"/><path d="M1112,442L1228,454L1097,330Z" fill="#272727" stroke="#272727" stroke-width="1.51"/><path d="M1141,660L1148,566L1007,667Z" fill="#3a3a3a" stroke="#3a3a3a" stroke-width="1.51"/><path d="M1132,237L1119,120L1032,194Z" fill="#404040" stroke="#404040" stroke-width="1.51"/><path d="M340,3L289,118L449,98Z" fill="#3d3d3d" stroke="#3d3d3d" stroke-width="1.51"/><path d="M659,924L758,890L679,770Z" fill="#202020" stroke="#202020" stroke-width="1.51"/><path d="M796,812L913,936L904,794Z" fill="#2b2b2b" stroke="#2b2b2b" stroke-width="1.51"/><path d="M1006,901L1012,791L904,794Z" fill="#343434" stroke="#343434" stroke-width="1.51"/><path d="M904,794L1012,791L885,705Z" fill="#323232" stroke="#323232" stroke-width="1.51"/><path d="M770,-136L678,7L801,11Z" fill="#202020" stroke="#202020" stroke-width="1.51"/><path d="M539,5L442,-120L455,9Z" fill="#313131" stroke="#313131" stroke-width="1.51"/><path d="M1119,120L1006,-25L996,113Z" fill="#393939" stroke="#393939" stroke-width="1.51"/><path d="M1012,791L1141,660L1007,667Z" fill="#3d3d3d" stroke="#3d3d3d" stroke-width="1.51"/><path d="M186,323L298,347L290,205Z" fill="#363636" stroke="#363636" stroke-width="1.51"/><path d="M186,323L197,466L298,347Z" fill="#2a2a2a" stroke="#2a2a2a" stroke-width="1.51"/><path d="M304,563L187,690L339,665Z" fill="#3a3a3a" stroke="#3a3a3a" stroke-width="1.51"/><path d="M770,-136L801,11L869,-8Z" fill="#252525" stroke="#252525" stroke-width="1.51"/><path d="M455,9L340,3L449,98Z" fill="#373737" stroke="#373737" stroke-width="1.51"/><path d="M640,-126L566,-117L678,7Z" fill="#252525" stroke="#252525" stroke-width="1.51"/><path d="M189,200L186,323L290,205Z" fill="#3c3c3c" stroke="#3c3c3c" stroke-width="1.51"/><path d="M1224,555L1228,454L1148,566Z" fill="#2b2b2b" stroke="#2b2b2b" stroke-width="1.51"/><path d="M1148,566L1228,454L1112,442Z" fill="#272727" stroke="#272727" stroke-width="1.51"/><path d="M1132,237L1239,239L1119,120Z" fill="#3f3f3f" stroke="#3f3f3f" stroke-width="1.51"/><path d="M886,-140L770,-136L869,-8Z" fill="#272727" stroke="#272727" stroke-width="1.51"/><path d="M197,466L205,556L304,563Z" fill="#2b2b2b" stroke="#2b2b2b" stroke-width="1.51"/><path d="M339,665L291,774L450,777Z" fill="#3f3f3f" stroke="#3f3f3f" stroke-width="1.51"/><path d="M289,118L189,200L290,205Z" fill="#3d3d3d" stroke="#3d3d3d" stroke-width="1.51"/><path d="M442,-120L340,3L455,9Z" fill="#363636" stroke="#363636" stroke-width="1.51"/><path d="M550,934L659,924L526,813Z" fill="#292929" stroke="#292929" stroke-width="1.51"/><path d="M526,813L659,924L679,770Z" fill="#272727" stroke="#272727" stroke-width="1.51"/><path d="M1228,454L1240,307L1097,330Z" fill="#2d2d2d" stroke="#2d2d2d" stroke-width="1.51"/><path d="M1350,341L1329,233L1240,307Z" fill="#333333" stroke="#333333" stroke-width="1.51"/><path d="M1226,665L1224,555L1148,566Z" fill="#343434" stroke="#343434" stroke-width="1.51"/><path d="M224,87L189,200L289,118Z" fill="#3c3c3c" stroke="#3c3c3c" stroke-width="1.51"/><path d="M1240,307L1239,239L1132,237Z" fill="#3a3a3a" stroke="#3a3a3a" stroke-width="1.51"/><path d="M1141,-126L982,-105L1006,-25Z" fill="#383838" stroke="#383838" stroke-width="1.51"/><path d="M982,-105L886,-140L869,-8Z" fill="#2d2d2d" stroke="#2d2d2d" stroke-width="1.51"/><path d="M1006,-25L982,-105L869,-8Z" fill="#303030" stroke="#303030" stroke-width="1.51"/><path d="M1143,-24L1006,-25L1119,120Z" fill="#3b3b3b" stroke="#3b3b3b" stroke-width="1.51"/><path d="M187,690L291,774L339,665Z" fill="#3e3e3e" stroke="#3e3e3e" stroke-width="1.51"/><path d="M409,885L550,934L526,813Z" fill="#303030" stroke="#303030" stroke-width="1.51"/><path d="M340,3L224,87L289,118Z" fill="#3b3b3b" stroke="#3b3b3b" stroke-width="1.51"/><path d="M409,885L526,813L450,777Z" fill="#343434" stroke="#343434" stroke-width="1.51"/><path d="M566,-117L442,-120L539,5Z" fill="#2e2e2e" stroke="#2e2e2e" stroke-width="1.51"/><path d="M340,3L198,-2L224,87Z" fill="#3a3a3a" stroke="#3a3a3a" stroke-width="1.51"/><path d="M640,-126L442,-120L566,-117Z" fill="#2b2b2b" stroke="#2b2b2b" stroke-width="1.51"/><path d="M324,-140L442,-120L640,-126Z" fill="#323232" stroke="#323232" stroke-width="1.51"/><path d="M291,774L409,885L450,777Z" fill="#3b3b3b" stroke="#3b3b3b" stroke-width="1.51"/><path d="M877,1004L913,936L758,890Z" fill="#282828" stroke="#282828" stroke-width="1.51"/><path d="M758,890L913,936L796,812Z" fill="#262626" stroke="#262626" stroke-width="1.51"/><path d="M1012,791L1105,817L1141,660Z" fill="#3f3f3f" stroke="#3f3f3f" stroke-width="1.51"/><path d="M877,1004L758,890L756,1030Z" fill="#242424" stroke="#242424" stroke-width="1.51"/><path d="M1141,660L1226,665L1148,566Z" fill="#393939" stroke="#393939" stroke-width="1.51"/><path d="M1006,901L1105,817L1012,791Z" fill="#393939" stroke="#393939" stroke-width="1.51"/><path d="M1257,798L1226,665L1141,660Z" fill="#3e3e3e" stroke="#3e3e3e" stroke-width="1.51"/><path d="M1350,341L1240,307L1228,454Z" fill="#2b2b2b" stroke="#2b2b2b" stroke-width="1.51"/><path d="M913,936L1006,901L904,794Z" fill="#303030" stroke="#303030" stroke-width="1.51"/><path d="M1251,113L1143,-24L1119,120Z" fill="#3b3b3b" stroke="#3b3b3b" stroke-width="1.51"/><path d="M291,774L295,890L409,885Z" fill="#3c3c3c" stroke="#3c3c3c" stroke-width="1.51"/><path d="M205,556L187,690L304,563Z" fill="#353535" stroke="#353535" stroke-width="1.51"/><path d="M108,587L187,690L205,556Z" fill="#353535" stroke="#353535" stroke-width="1.51"/><path d="M108,587L205,556L197,466Z" fill="#2c2c2c" stroke="#2c2c2c" stroke-width="1.51"/><path d="M1329,233L1239,239L1240,307Z" fill="#393939" stroke="#393939" stroke-width="1.51"/><path d="M1329,233L1251,113L1239,239Z" fill="#3d3d3d" stroke="#3d3d3d" stroke-width="1.51"/><path d="M1239,239L1251,113L1119,120Z" fill="#3d3d3d" stroke="#3d3d3d" stroke-width="1.51"/><path d="M186,323L78,425L197,466Z" fill="#262626" stroke="#262626" stroke-width="1.51"/><path d="M189,200L113,238L186,323Z" fill="#393939" stroke="#393939" stroke-width="1.51"/><path d="M112,98L113,238L189,200Z" fill="#3c3c3c" stroke="#3c3c3c" stroke-width="1.51"/><path d="M113,238L90,334L186,323Z" fill="#333333" stroke="#333333" stroke-width="1.51"/><path d="M187,690L215,776L291,774Z" fill="#3d3d3d" stroke="#3d3d3d" stroke-width="1.51"/><path d="M90,334L78,425L186,323Z" fill="#2b2b2b" stroke="#2b2b2b" stroke-width="1.51"/><path d="M187,690L76,790L215,776Z" fill="#3b3b3b" stroke="#3b3b3b" stroke-width="1.51"/><path d="M78,425L108,587L197,466Z" fill="#252525" stroke="#252525" stroke-width="1.51"/><path d="M224,87L112,98L189,200Z" fill="#3b3b3b" stroke="#3b3b3b" stroke-width="1.51"/><path d="M189,-102L198,-2L340,3Z" fill="#393939" stroke="#393939" stroke-width="1.51"/><path d="M913,936L983,1015L1006,901Z" fill="#313131" stroke="#313131" stroke-width="1.51"/><path d="M756,1030L758,890L659,924Z" fill="#1e1e1e" stroke="#1e1e1e" stroke-width="1.51"/><path d="M1347,453L1228,454L1224,555Z" fill="#252525" stroke="#252525" stroke-width="1.51"/><path d="M550,934L660,1029L659,924Z" fill="#252525" stroke="#252525" stroke-width="1.51"/><path d="M529,1020L660,1029L550,934Z" fill="#292929" stroke="#292929" stroke-width="1.51"/><path d="M529,1020L550,934L455,1034Z" fill="#2e2e2e" stroke="#2e2e2e" stroke-width="1.51"/><path d="M660,1029L756,1030L659,924Z" fill="#202020" stroke="#202020" stroke-width="1.51"/><path d="M1330,589L1347,453L1224,555Z" fill="#2b2b2b" stroke="#2b2b2b" stroke-width="1.51"/><path d="M1347,453L1350,341L1228,454Z" fill="#242424" stroke="#242424" stroke-width="1.51"/><path d="M215,776L295,890L291,774Z" fill="#3c3c3c" stroke="#3c3c3c" stroke-width="1.51"/><path d="M442,-120L324,-140L340,3Z" fill="#3a3a3a" stroke="#3a3a3a" stroke-width="1.51"/><path d="M770,-136L324,-140L640,-126Z" fill="#292929" stroke="#292929" stroke-width="1.51"/><path d="M886,-140L324,-140L770,-136Z" fill="#222222" stroke="#222222" stroke-width="1.51"/><path d="M1379,707L1330,589L1226,665Z" fill="#3a3a3a" stroke="#3a3a3a" stroke-width="1.51"/><path d="M1226,665L1330,589L1224,555Z" fill="#343434" stroke="#343434" stroke-width="1.51"/><path d="M455,1034L550,934L409,885Z" fill="#313131" stroke="#313131" stroke-width="1.51"/><path d="M198,-2L112,98L224,87Z" fill="#393939" stroke="#393939" stroke-width="1.51"/><path d="M-55,329L78,425L90,334Z" fill="#292929" stroke="#292929" stroke-width="1.51"/><path d="M-55,329L-28,457L78,425Z" fill="#232323" stroke="#232323" stroke-width="1.51"/><path d="M1251,113L1263,16L1143,-24Z" fill="#393939" stroke="#393939" stroke-width="1.51"/><path d="M1143,-24L1141,-126L1006,-25Z" fill="#3a3a3a" stroke="#3a3a3a" stroke-width="1.51"/><path d="M1364,95L1263,16L1251,113Z" fill="#393939" stroke="#393939" stroke-width="1.51"/><path d="M1105,817L1257,798L1141,660Z" fill="#3d3d3d" stroke="#3d3d3d" stroke-width="1.51"/><path d="M1006,901L1135,902L1105,817Z" fill="#3b3b3b" stroke="#3b3b3b" stroke-width="1.51"/><path d="M1133,1014L1135,902L1006,901Z" fill="#3b3b3b" stroke="#3b3b3b" stroke-width="1.51"/><path d="M1251,-147L1141,-126L1143,-24Z" fill="#393939" stroke="#393939" stroke-width="1.51"/><path d="M982,-105L1141,-126L886,-140Z" fill="#343434" stroke="#343434" stroke-width="1.51"/><path d="M-4,689L94,684L108,587Z" fill="#393939" stroke="#393939" stroke-width="1.51"/><path d="M108,587L94,684L187,690Z" fill="#3a3a3a" stroke="#3a3a3a" stroke-width="1.51"/><path d="M215,776L188,911L295,890Z" fill="#3a3a3a" stroke="#3a3a3a" stroke-width="1.51"/><path d="M877,1004L983,1015L913,936Z" fill="#2e2e2e" stroke="#2e2e2e" stroke-width="1.51"/><path d="M756,1030L983,1015L877,1004Z" fill="#2a2a2a" stroke="#2a2a2a" stroke-width="1.51"/><path d="M1217,895L1257,798L1105,817Z" fill="#3a3a3a" stroke="#3a3a3a" stroke-width="1.51"/><path d="M529,1020L455,1034L660,1029Z" fill="#2b2b2b" stroke="#2b2b2b" stroke-width="1.51"/><path d="M660,1029L455,1034L756,1030Z" fill="#252525" stroke="#252525" stroke-width="1.51"/><path d="M343,1035L455,1034L409,885Z" fill="#373737" stroke="#373737" stroke-width="1.51"/><path d="M198,-2L89,-7L112,98Z" fill="#383838" stroke="#383838" stroke-width="1.51"/><path d="M324,-140L189,-102L340,3Z" fill="#393939" stroke="#393939" stroke-width="1.51"/><path d="M1263,16L1251,-147L1143,-24Z" fill="#383838" stroke="#383838" stroke-width="1.51"/><path d="M1329,233L1364,95L1251,113Z" fill="#3b3b3b" stroke="#3b3b3b" stroke-width="1.51"/><path d="M1446,219L1364,95L1329,233Z" fill="#3b3b3b" stroke="#3b3b3b" stroke-width="1.51"/><path d="M1444,324L1329,233L1350,341Z" fill="#323232" stroke="#323232" stroke-width="1.51"/><path d="M1135,902L1217,895L1105,817Z" fill="#3b3b3b" stroke="#3b3b3b" stroke-width="1.51"/><path d="M1226,1013L1217,895L1135,902Z" fill="#393939" stroke="#393939" stroke-width="1.51"/><path d="M189,-102L89,-7L198,-2Z" fill="#373737" stroke="#373737" stroke-width="1.51"/><path d="M-55,329L90,334L-56,207Z" fill="#323232" stroke="#323232" stroke-width="1.51"/><path d="M295,890L343,1035L409,885Z" fill="#3b3b3b" stroke="#3b3b3b" stroke-width="1.51"/><path d="M76,790L188,911L215,776Z" fill="#393939" stroke="#393939" stroke-width="1.51"/><path d="M78,425L-20,558L108,587Z" fill="#282828" stroke="#282828" stroke-width="1.51"/><path d="M94,684L76,790L187,690Z" fill="#3b3b3b" stroke="#3b3b3b" stroke-width="1.51"/><path d="M90,334L113,238L-56,207Z" fill="#373737" stroke="#373737" stroke-width="1.51"/><path d="M1347,453L1444,324L1350,341Z" fill="#282828" stroke="#282828" stroke-width="1.51"/><path d="M1477,449L1444,324L1347,453Z" fill="#232323" stroke="#232323" stroke-width="1.51"/><path d="M1477,449L1347,453L1490,552Z" fill="#222222" stroke="#222222" stroke-width="1.51"/><path d="M207,1015L343,1035L295,890Z" fill="#393939" stroke="#393939" stroke-width="1.51"/><path d="M1257,798L1379,707L1226,665Z" fill="#3c3c3c" stroke="#3c3c3c" stroke-width="1.51"/><path d="M1333,804L1379,707L1257,798Z" fill="#3a3a3a" stroke="#3a3a3a" stroke-width="1.51"/><path d="M-28,457L-20,558L78,425Z" fill="#212121" stroke="#212121" stroke-width="1.51"/><path d="M-4,689L76,790L94,684Z" fill="#3b3b3b" stroke="#3b3b3b" stroke-width="1.51"/><path d="M1217,895L1333,804L1257,798Z" fill="#3a3a3a" stroke="#3a3a3a" stroke-width="1.51"/><path d="M983,1015L1133,1014L1006,901Z" fill="#373737" stroke="#373737" stroke-width="1.51"/><path d="M1217,895L1344,925L1333,804Z" fill="#383838" stroke="#383838" stroke-width="1.51"/><path d="M1375,1039L1133,1014L983,1015Z" fill="#393939" stroke="#393939" stroke-width="1.51"/><path d="M1444,324L1446,219L1329,233Z" fill="#373737" stroke="#373737" stroke-width="1.51"/><path d="M-3,82L113,238L112,98Z" fill="#393939" stroke="#393939" stroke-width="1.51"/><path d="M-28,457L-138,544L-20,558Z" fill="#272727" stroke="#272727" stroke-width="1.51"/><path d="M1364,95L1348,-25L1263,16Z" fill="#383838" stroke="#383838" stroke-width="1.51"/><path d="M1447,-35L1348,-25L1364,95Z" fill="#363636" stroke="#363636" stroke-width="1.51"/><path d="M1348,-25L1251,-147L1263,16Z" fill="#373737" stroke="#373737" stroke-width="1.51"/><path d="M1141,-126L1251,-147L886,-140Z" fill="#3b3b3b" stroke="#3b3b3b" stroke-width="1.51"/><path d="M886,-140L1251,-147L324,-140Z" fill="#262626" stroke="#262626" stroke-width="1.51"/><path d="M-19,784L-4,689L-131,678Z" fill="#3a3a3a" stroke="#3a3a3a" stroke-width="1.51"/><path d="M-20,558L-4,689L108,587Z" fill="#333333" stroke="#333333" stroke-width="1.51"/><path d="M89,-7L-3,82L112,98Z" fill="#373737" stroke="#373737" stroke-width="1.51"/><path d="M1490,552L1347,453L1330,589Z" fill="#292929" stroke="#292929" stroke-width="1.51"/><path d="M1444,324L1576,204L1446,219Z" fill="#373737" stroke="#373737" stroke-width="1.51"/><path d="M-3,82L-56,207L113,238Z" fill="#3a3a3a" stroke="#3a3a3a" stroke-width="1.51"/><path d="M1456,670L1330,589L1379,707Z" fill="#393939" stroke="#393939" stroke-width="1.51"/><path d="M1456,670L1490,552L1330,589Z" fill="#313131" stroke="#313131" stroke-width="1.51"/><path d="M89,921L188,911L76,790Z" fill="#373737" stroke="#373737" stroke-width="1.51"/><path d="M86,1012L207,1015L188,911Z" fill="#373737" stroke="#373737" stroke-width="1.51"/><path d="M188,911L207,1015L295,890Z" fill="#393939" stroke="#393939" stroke-width="1.51"/><path d="M1447,775L1456,670L1379,707Z" fill="#3a3a3a" stroke="#3a3a3a" stroke-width="1.51"/><path d="M1446,219L1462,96L1364,95Z" fill="#393939" stroke="#393939" stroke-width="1.51"/><path d="M1348,-25L1366,-124L1251,-147Z" fill="#373737" stroke="#373737" stroke-width="1.51"/><path d="M1576,204L1462,96L1446,219Z" fill="#393939" stroke="#393939" stroke-width="1.51"/><path d="M1576,204L1444,324L1597,345Z" fill="#323232" stroke="#323232" stroke-width="1.51"/><path d="M1333,804L1447,775L1379,707Z" fill="#393939" stroke="#393939" stroke-width="1.51"/><path d="M1133,1014L1226,1013L1135,902Z" fill="#393939" stroke="#393939" stroke-width="1.51"/><path d="M1375,1039L1226,1013L1133,1014Z" fill="#383838" stroke="#383838" stroke-width="1.51"/><path d="M-15,924L89,921L76,790Z" fill="#363636" stroke="#363636" stroke-width="1.51"/><path d="M-125,81L-160,213L-56,207Z" fill="#393939" stroke="#393939" stroke-width="1.51"/><path d="M89,-7L-49,1L-3,82Z" fill="#353535" stroke="#353535" stroke-width="1.51"/><path d="M189,-102L60,-126L89,-7Z" fill="#373737" stroke="#373737" stroke-width="1.51"/><path d="M324,-140L60,-126L189,-102Z" fill="#383838" stroke="#383838" stroke-width="1.51"/><path d="M-4,689L-19,784L76,790Z" fill="#393939" stroke="#393939" stroke-width="1.51"/><path d="M-131,678L-4,689L-20,558Z" fill="#363636" stroke="#363636" stroke-width="1.51"/><path d="M1226,1013L1344,925L1217,895Z" fill="#383838" stroke="#383838" stroke-width="1.51"/><path d="M1447,-35L1366,-124L1348,-25Z" fill="#363636" stroke="#363636" stroke-width="1.51"/><path d="M1454,888L1447,775L1333,804Z" fill="#373737" stroke="#373737" stroke-width="1.51"/><path d="M1456,670L1573,575L1490,552Z" fill="#303030" stroke="#303030" stroke-width="1.51"/><path d="M-55,329L-132,436L-28,457Z" fill="#232323" stroke="#232323" stroke-width="1.51"/><path d="M-151,308L-132,436L-55,329Z" fill="#292929" stroke="#292929" stroke-width="1.51"/><path d="M60,-126L-49,1L89,-7Z" fill="#353535" stroke="#353535" stroke-width="1.51"/><path d="M-56,207L-151,308L-55,329Z" fill="#333333" stroke="#333333" stroke-width="1.51"/><path d="M1462,96L1447,-35L1364,95Z" fill="#373737" stroke="#373737" stroke-width="1.51"/><path d="M-132,436L-138,544L-28,457Z" fill="#212121" stroke="#212121" stroke-width="1.51"/><path d="M-160,213L-151,308L-56,207Z" fill="#383838" stroke="#383838" stroke-width="1.51"/><path d="M-132,436L-151,308L-138,544Z" fill="#202020" stroke="#202020" stroke-width="1.51"/><path d="M-15,924L86,1012L89,921Z" fill="#363636" stroke="#363636" stroke-width="1.51"/><path d="M89,921L86,1012L188,911Z" fill="#373737" stroke="#373737" stroke-width="1.51"/><path d="M207,1015L-21,1029L343,1035Z" fill="#383838" stroke="#383838" stroke-width="1.51"/><path d="M-15,924L76,790L-19,784Z" fill="#373737" stroke="#373737" stroke-width="1.51"/><path d="M-168,919L-131,678L-138,544Z" fill="#3a3a3a" stroke="#3a3a3a" stroke-width="1.51"/><path d="M-125,81L-56,207L-3,82Z" fill="#383838" stroke="#383838" stroke-width="1.51"/><path d="M-158,-28L-125,81L-49,1Z" fill="#353535" stroke="#353535" stroke-width="1.51"/><path d="M-49,1L-125,81L-3,82Z" fill="#363636" stroke="#363636" stroke-width="1.51"/><path d="M-138,544L-131,678L-20,558Z" fill="#303030" stroke="#303030" stroke-width="1.51"/><path d="M-141,799L-131,678L-168,919Z" fill="#373737" stroke="#373737" stroke-width="1.51"/><path d="M1490,552L1597,431L1477,449Z" fill="#212121" stroke="#212121" stroke-width="1.51"/><path d="M1462,96L1560,96L1447,-35Z" fill="#363636" stroke="#363636" stroke-width="1.51"/><path d="M1587,668L1573,575L1456,670Z" fill="#363636" stroke="#363636" stroke-width="1.51"/><path d="M1597,345L1444,324L1477,449Z" fill="#272727" stroke="#272727" stroke-width="1.51"/><path d="M1597,431L1597,345L1477,449Z" fill="#232323" stroke="#232323" stroke-width="1.51"/><path d="M1573,575L1597,431L1490,552Z" fill="#262626" stroke="#262626" stroke-width="1.51"/><path d="M-141,799L-15,924L-19,784Z" fill="#363636" stroke="#363636" stroke-width="1.51"/><path d="M1570,802L1587,668L1456,670Z" fill="#3a3a3a" stroke="#3a3a3a" stroke-width="1.51"/><path d="M1344,925L1454,888L1333,804Z" fill="#363636" stroke="#363636" stroke-width="1.51"/><path d="M1375,1039L1454,888L1344,925Z" fill="#363636" stroke="#363636" stroke-width="1.51"/><path d="M1588,-28L1560,96L1576,204Z" fill="#373737" stroke="#373737" stroke-width="1.51"/><path d="M1576,204L1560,96L1462,96Z" fill="#383838" stroke="#383838" stroke-width="1.51"/><path d="M60,-126L-48,-147L-49,1Z" fill="#353535" stroke="#353535" stroke-width="1.51"/><path d="M324,-140L-48,-147L60,-126Z" fill="#373737" stroke="#373737" stroke-width="1.51"/><path d="M1251,-147L-48,-147L324,-140Z" fill="#2e2e2e" stroke="#2e2e2e" stroke-width="1.51"/><path d="M1588,-28L1462,-144L1447,-35Z" fill="#353535" stroke="#353535" stroke-width="1.51"/><path d="M1447,-35L1462,-144L1366,-124Z" fill="#353535" stroke="#353535" stroke-width="1.51"/><path d="M1366,-124L1462,-144L1251,-147Z" fill="#363636" stroke="#363636" stroke-width="1.51"/><path d="M1573,575L1587,668L1597,431Z" fill="#2b2b2b" stroke="#2b2b2b" stroke-width="1.51"/><path d="M1570,802L1456,670L1447,775Z" fill="#393939" stroke="#393939" stroke-width="1.51"/><path d="M1454,888L1570,802L1447,775Z" fill="#373737" stroke="#373737" stroke-width="1.51"/><path d="M1226,1013L1375,1039L1344,925Z" fill="#373737" stroke="#373737" stroke-width="1.51"/><path d="M756,1030L1375,1039L983,1015Z" fill="#373737" stroke="#373737" stroke-width="1.51"/><path d="M455,1034L1375,1039L756,1030Z" fill="#292929" stroke="#292929" stroke-width="1.51"/><path d="M-160,1051L1375,1039L455,1034Z" fill="#2a2a2a" stroke="#2a2a2a" stroke-width="1.51"/><path d="M-168,919L-138,544L-151,308Z" fill="#2f2f2f" stroke="#2f2f2f" stroke-width="1.51"/><path d="M-131,678L-141,799L-19,784Z" fill="#393939" stroke="#393939" stroke-width="1.51"/><path d="M-123,-123L-158,-28L-49,1Z" fill="#353535" stroke="#353535" stroke-width="1.51"/><path d="M-125,81L-158,-28L-160,213Z" fill="#373737" stroke="#373737" stroke-width="1.51"/><path d="M1578,937L1570,802L1454,888Z" fill="#353535" stroke="#353535" stroke-width="1.51"/><path d="M-168,919L-21,1029L-15,924Z" fill="#353535" stroke="#353535" stroke-width="1.51"/><path d="M-15,924L-21,1029L86,1012Z" fill="#353535" stroke="#353535" stroke-width="1.51"/><path d="M86,1012L-21,1029L207,1015Z" fill="#363636" stroke="#363636" stroke-width="1.51"/><path d="M-48,-147L-123,-123L-49,1Z" fill="#353535" stroke="#353535" stroke-width="1.51"/><path d="M1606,-101L1588,-28L1576,204Z" fill="#353535" stroke="#353535" stroke-width="1.51"/><path d="M1560,96L1588,-28L1447,-35Z" fill="#353535" stroke="#353535" stroke-width="1.51"/><path d="M1375,1039L1487,1031L1454,888Z" fill="#353535" stroke="#353535" stroke-width="1.51"/><path d="M-141,799L-168,919L-15,924Z" fill="#353535" stroke="#353535" stroke-width="1.51"/><path d="M-160,213L-168,919L-151,308Z" fill="#212121" stroke="#212121" stroke-width="1.51"/><path d="M-158,-28L-168,919L-160,213Z" fill="#282828" stroke="#282828" stroke-width="1.51"/><path d="M1588,-28L1606,-101L1462,-144Z" fill="#353535" stroke="#353535" stroke-width="1.51"/><path d="M1597,345L1606,-101L1576,204Z" fill="#393939" stroke="#393939" stroke-width="1.51"/><path d="M1597,431L1606,-101L1597,345Z" fill="#3b3b3b" stroke="#3b3b3b" stroke-width="1.51"/><path d="M1487,1031L1578,937L1454,888Z" fill="#353535" stroke="#353535" stroke-width="1.51"/><path d="M1570,802L1578,937L1587,668Z" fill="#373737" stroke="#373737" stroke-width="1.51"/><path d="M1587,668L1578,937L1597,431Z" fill="#3b3b3b" stroke="#3b3b3b" stroke-width="1.51"/><path d="M1487,1031L1564,1029L1578,937Z" fill="#353535" stroke="#353535" stroke-width="1.51"/><path d="M1375,1039L1564,1029L1487,1031Z" fill="#353535" stroke="#353535" stroke-width="1.51"/><path d="M-168,919L-160,1051L-21,1029Z" fill="#353535" stroke="#353535" stroke-width="1.51"/><path d="M-21,1029L-160,1051L343,1035Z" fill="#363636" stroke="#363636" stroke-width="1.51"/><path d="M343,1035L-160,1051L455,1034Z" fill="#383838" stroke="#383838" stroke-width="1.51"/></svg>